<?xml version="1.0" standalone="no"?>
<!DOCTYPE svg PUBLIC "-//W3C//DTD SVG 20010904//EN"
 "http://www.w3.org/TR/2001/REC-SVG-20010904/DTD/svg10.dtd">
<svg version="1.0" xmlns="http://www.w3.org/2000/svg"
 width="340.000000pt" height="340.000000pt" viewBox="0 0 340.000000 340.000000"
 preserveAspectRatio="xMidYMid meet">
<metadata>
Created by potrace 1.11, written by Peter Selinger 2001-2013
</metadata>
<g transform="translate(0.000000,340.000000) scale(0.100000,-0.100000)"
fill="#000000" stroke="none">
<path d="M0 1791 l0 -1610 23 -4 22 -4 -22 -2 c-22 -1 -23 -5 -23 -86 l0 -86
151 2 c83 1 147 4 142 8 -21 14 -99 161 -86 161 4 0 2 5 -5 12 -7 7 -12 16
-12 21 0 15 27 -18 35 -42 8 -27 45 -91 52 -91 2 0 1 5 -2 10 -3 6 3 10 14 10
12 0 21 -4 21 -9 0 -5 3 -16 6 -25 4 -11 1 -16 -11 -16 -15 0 -16 -2 -4 -17
13 -15 14 -15 17 0 2 10 8 17 14 17 6 0 8 -8 5 -19 -6 -23 18 -23 51 0 14 10
20 22 16 33 -4 9 -1 16 6 16 7 0 10 7 6 15 -7 19 33 43 44 26 5 -9 10 -8 20 4
9 11 9 15 1 15 -7 0 -9 5 -6 10 3 6 1 10 -5 10 -6 0 -8 5 -5 10 5 8 11 7 20 0
11 -9 20 -7 39 7 14 10 26 22 26 27 0 5 -7 3 -15 -4 -9 -7 -18 -10 -21 -7 -3
3 6 13 20 22 29 19 27 36 -3 28 -12 -3 -17 -11 -14 -19 3 -8 0 -14 -7 -14 -7
0 -9 -8 -4 -22 6 -20 5 -21 -9 -10 -9 8 -21 11 -26 8 -6 -4 -15 3 -21 14 -7
13 -7 20 0 20 5 0 10 -4 10 -10 0 -5 5 -10 11 -10 8 0 8 5 -1 15 -18 22 -40
19 -37 -6 1 -12 -3 -24 -10 -26 -8 -3 -10 7 -7 31 2 19 0 38 -6 41 -15 9 -12
25 5 25 8 0 15 4 15 10 0 6 10 5 25 -2 14 -6 25 -19 25 -30 0 -10 4 -18 10
-18 13 0 1 31 -22 53 -17 16 -22 31 -19 50 0 4 -3 7 -9 7 -13 0 -13 -6 1 -33
7 -15 3 -13 -12 6 -16 21 -24 25 -30 16 -4 -8 -11 -10 -15 -6 -4 3 -1 13 6 22
7 9 10 18 6 22 -10 11 -46 11 -46 0 0 -5 -7 -6 -16 -3 -9 3 -12 2 -9 -5 4 -6
13 -8 20 -5 7 2 16 -2 19 -10 9 -24 7 -27 -8 -15 -7 6 -22 8 -31 4 -12 -4 -16
-3 -12 4 4 6 -3 19 -14 29 -20 18 -20 18 -5 -11 8 -16 13 -32 9 -35 -3 -3 -7
0 -9 5 -11 28 -66 116 -71 112 -2 -3 3 -17 13 -31 9 -15 14 -29 11 -32 -8 -8
-39 55 -32 66 3 5 1 11 -5 15 -6 4 -4 15 6 30 9 14 20 23 24 20 5 -3 11 -1 15
5 3 5 2 10 -4 10 -17 0 19 59 40 65 11 4 23 5 26 2 2 -3 -5 -8 -16 -12 -12 -3
-21 -12 -21 -20 0 -7 -5 -15 -11 -17 -8 -3 -6 -15 6 -41 10 -21 19 -36 21 -34
3 2 -2 17 -10 32 -15 28 -13 45 4 45 5 0 10 -6 13 -13 2 -6 2 -1 0 11 -2 13 0
21 6 18 5 -3 11 1 15 9 8 22 40 20 32 -2 -6 -17 -5 -17 8 0 7 9 19 17 26 17 9
0 7 -7 -6 -22 -19 -23 -19 -23 2 -5 11 9 24 14 28 10 4 -4 11 -1 16 7 7 10 10
11 10 3 0 -18 17 -16 23 1 4 11 1 13 -11 10 -15 -5 -15 -4 -2 8 18 16 50 64
50 75 0 4 -7 -1 -15 -11 -11 -14 -15 -16 -15 -5 0 12 -2 12 -11 -1 -8 -12 -9
-11 -6 5 2 11 8 19 14 18 6 -1 9 7 7 20 -2 12 -2 17 1 10 4 -6 27 -33 52 -59
27 -27 42 -49 35 -52 -7 -2 -12 -8 -12 -13 0 -6 8 -5 20 1 11 6 20 7 20 1 0
-5 -7 -11 -15 -15 -8 -3 -15 -10 -15 -16 0 -6 12 -3 27 7 27 17 27 17 14 0 -8
-10 -11 -20 -7 -24 3 -3 6 -1 6 5 0 7 5 12 11 12 5 0 7 -5 4 -10 -3 -6 2 -10
13 -10 24 0 56 -35 46 -51 -5 -9 -2 -10 9 -6 16 6 34 -8 20 -16 -5 -2 -3 -2 4
-1 18 4 34 -21 26 -42 -6 -17 -5 -17 10 -5 14 11 18 11 23 -3 3 -9 13 -16 21
-16 15 0 4 15 -90 114 -27 28 -62 68 -77 89 l-28 39 23 34 c14 20 21 42 18 51
-5 12 -2 15 10 10 12 -4 17 -1 17 11 0 10 6 24 13 31 10 11 10 13 -1 7 -14 -8
-14 0 -2 29 l9 20 0 -20 c2 -41 29 32 34 92 6 60 9 78 19 103 12 29 17 90 8
90 -5 0 -8 6 -6 13 3 6 7 26 11 42 l7 30 18 -35 c21 -39 25 -67 10 -72 -6 -2
-8 -26 -4 -65 5 -48 9 -59 19 -50 6 7 14 19 18 27 3 8 6 -2 6 -24 1 -29 4 -37
16 -33 8 4 17 2 20 -2 2 -5 13 -11 24 -14 16 -4 18 -1 11 12 -27 53 -59 131
-64 160 -3 19 -14 52 -23 73 -13 29 -21 37 -35 32 -13 -4 -21 2 -28 21 -9 25
-11 25 -32 11 -32 -23 -73 -20 -117 8 -75 48 -100 106 -80 185 16 62 2 148
-42 262 -56 144 -44 228 36 266 34 16 37 16 102 -11 70 -29 95 -53 99 -95 5
-58 53 -151 79 -151 17 0 31 34 34 83 0 9 5 17 10 17 5 0 56 -44 113 -98 56
-54 112 -103 122 -109 12 -7 25 -35 37 -82 33 -131 99 -210 207 -249 37 -14
50 -16 38 -7 -22 17 -5 20 29 5 14 -6 16 -9 5 -10 -36 -4 41 -18 105 -19 182
-3 335 92 425 262 17 31 35 57 39 57 5 0 18 28 31 63 28 78 31 81 57 57 17
-15 20 -27 16 -58 -4 -31 0 -48 22 -82 52 -83 83 -173 78 -226 -4 -45 -3 -47
11 -31 8 11 12 25 9 33 -3 7 12 -3 34 -22 81 -75 162 -92 296 -62 52 11 62 17
73 43 7 16 23 40 37 53 16 15 23 30 20 43 -4 14 0 22 15 25 19 6 70 108 87
177 6 22 13 27 36 27 24 0 29 4 29 23 0 15 -9 28 -24 35 -17 7 -25 21 -28 49
-8 59 -44 126 -82 151 -62 42 -120 53 -346 63 -118 5 -285 14 -370 21 -85 7
-211 12 -280 13 -69 0 -128 4 -132 9 -9 13 -234 -11 -267 -29 -93 -48 -190
-161 -176 -205 5 -16 2 -20 -17 -20 -19 0 -20 2 -8 11 12 9 12 10 -3 5 -26 -8
-67 4 -67 19 0 8 -10 17 -22 20 -35 12 -148 97 -149 114 -3 39 0 98 6 121 4
14 7 38 6 55 0 16 4 32 11 36 6 4 7 12 4 18 -4 6 -12 9 -17 6 -13 -9 -11 8 5
30 8 11 19 16 30 12 26 -10 125 41 109 56 -3 4 2 18 11 32 9 14 12 25 7 25 -5
0 -9 18 -9 40 0 23 -2 43 -5 46 -11 12 -28 -8 -22 -26 3 -10 1 -21 -5 -25 -6
-4 -10 4 -10 19 0 29 -14 35 -24 10 -3 -8 -10 -12 -16 -9 -16 10 -12 23 10 30
11 3 20 14 20 23 0 14 2 14 9 3 7 -11 11 -10 20 7 8 15 8 23 -1 28 -7 5 -8 2
-3 -7 6 -10 5 -11 -4 -3 -14 12 -4 47 11 38 6 -4 3 5 -6 18 -9 14 -13 27 -10
31 14 14 12 81 -2 92 -13 9 -12 13 6 32 11 12 20 29 20 38 0 8 5 15 10 15 6 0
10 6 8 13 -4 18 52 127 68 134 8 3 14 12 14 20 0 14 58 73 72 73 5 0 8 6 8 14
0 8 14 17 30 21 18 4 27 11 23 18 -4 6 0 8 10 4 11 -4 17 -1 17 9 0 9 8 14 18
13 45 -4 82 2 97 18 14 13 21 14 36 5 14 -9 19 -9 19 -1 0 8 4 8 14 0 8 -6 18
-11 22 -9 5 1 28 -8 51 -20 23 -12 45 -22 48 -22 3 0 14 14 25 32 13 22 21 27
24 17 2 -8 7 -22 10 -31 7 -22 44 -19 52 4 3 10 9 18 14 18 11 0 50 -40 50
-51 0 -4 10 -9 23 -11 17 -2 25 4 34 32 7 19 11 25 9 13 -2 -13 1 -20 8 -18
13 5 41 -14 49 -35 4 -10 6 -8 6 7 1 25 21 42 21 18 0 -9 4 -14 9 -11 5 3 12
-1 15 -10 9 -24 7 -31 -4 -14 -5 8 -10 10 -10 4 0 -5 7 -19 15 -30 9 -10 14
-13 13 -5 -2 7 3 16 10 18 8 3 10 -1 5 -14 -6 -16 -5 -16 10 -4 15 11 17 11
17 -2 0 -11 6 -13 22 -9 14 3 19 1 14 -6 -4 -8 3 -11 24 -9 16 1 30 5 30 10 0
4 8 7 18 7 23 0 72 -40 51 -40 -8 -1 2 -9 21 -20 34 -19 68 -28 42 -11 -11 7
-11 9 2 14 8 3 21 1 28 -6 7 -7 31 -14 53 -15 22 -2 46 -9 53 -14 8 -7 17 -6
28 3 14 11 22 7 61 -36 50 -55 87 -120 78 -136 -4 -5 -3 -8 2 -7 4 2 9 0 10
-5 3 -9 21 -31 53 -63 16 -16 19 -24 10 -22 -17 3 -17 3 11 -94 20 -70 36
-156 43 -245 2 -23 7 -47 12 -54 4 -7 8 -30 10 -53 4 -63 4 -64 20 -21 9 22
16 62 16 88 0 33 5 50 15 54 12 5 12 7 1 15 -8 6 17 8 67 5 44 -2 199 3 345
11 146 7 275 14 287 14 l22 0 1 260 c0 207 -2 258 -12 252 -10 -6 -11 -4 0 7
15 16 16 43 1 33 -8 -5 -8 -1 0 14 6 12 11 78 11 161 l0 140 -32 3 c-18 2 -58
-1 -88 -5 -30 -5 -66 -10 -80 -12 -14 -2 -35 -6 -46 -10 -13 -4 -25 -2 -29 5
-5 8 -10 7 -18 -4 -7 -9 -21 -17 -32 -19 -11 -2 -31 -9 -45 -14 -14 -6 -28 -9
-32 -6 -5 2 -8 -3 -8 -11 0 -9 -6 -16 -13 -16 -7 0 -29 -9 -50 -20 -21 -11
-43 -17 -49 -14 -7 4 -8 3 -4 -4 11 -18 -32 -36 -51 -20 -15 12 -15 11 -5 -9
15 -28 15 -33 -1 -33 -8 0 -24 -12 -38 -26 -14 -15 -31 -23 -42 -20 -14 3 -16
2 -7 -9 17 -21 -25 -41 -48 -24 -14 11 -15 11 -4 -1 26 -29 3 -87 -24 -60 -5
5 -9 -4 -9 -21 0 -21 3 -26 10 -17 6 7 19 15 30 16 17 3 16 1 -7 -17 -14 -12
-36 -21 -48 -21 -11 0 -19 -4 -16 -9 3 -5 22 -5 42 -1 30 7 35 6 32 -8 -2 -11
-25 -23 -63 -35 l-60 -17 53 5 c52 6 52 6 35 -15 -10 -11 -25 -20 -35 -20 -10
0 -18 -4 -18 -9 0 -5 9 -7 19 -4 16 4 19 1 14 -16 -3 -12 -11 -21 -18 -21 -15
0 -55 72 -55 100 0 11 -5 20 -11 20 -6 0 -8 7 -5 16 4 10 -3 25 -19 40 -15 13
-24 28 -21 33 3 5 -9 22 -28 37 -19 16 -31 34 -28 42 3 8 0 17 -6 21 -5 3 -12
15 -14 26 -1 11 -17 34 -34 50 -17 17 -45 49 -63 73 -18 23 -39 42 -47 42 -8
0 -14 6 -14 13 0 6 -14 23 -32 37 -48 38 -59 51 -55 64 5 15 56 15 86 0 24
-13 61 -4 61 15 0 13 44 29 60 21 48 -24 80 -28 95 -13 8 8 15 19 15 24 0 12
46 11 94 -2 34 -9 41 -8 62 12 21 20 45 24 97 18 9 -1 17 -6 17 -11 0 -17 40
-7 66 17 26 24 63 33 77 18 4 -3 23 -8 43 -10 27 -3 43 2 60 18 20 19 37 22
97 19 9 -1 17 -5 17 -11 0 -19 45 -8 71 17 24 23 32 25 73 19 25 -4 43 -11 40
-16 -3 -5 7 -9 21 -9 36 0 64 36 65 83 l0 37 -180 0 c-99 0 -180 -4 -180 -9 0
-14 -43 -22 -51 -9 -4 6 -29 13 -56 15 -44 5 -52 2 -69 -19 -20 -26 -48 -40
-58 -31 -3 4 4 17 16 30 12 13 16 23 10 23 -6 0 -14 -5 -17 -10 -4 -6 -11 -7
-17 -4 -7 4 -8 2 -4 -4 9 -15 -9 -15 -33 0 -15 9 -26 9 -44 1 -16 -8 -28 -8
-34 -2 -7 7 -21 1 -43 -17 -27 -23 -35 -26 -51 -16 -10 7 -27 12 -37 12 -22 0
-57 -35 -48 -48 6 -10 -43 -27 -52 -18 -3 3 7 15 22 27 15 12 25 24 21 27 -3
3 -16 -5 -29 -17 -23 -21 -25 -22 -49 -7 -31 21 -73 7 -87 -29 -11 -29 -36
-32 -68 -7 -26 20 -82 18 -82 -2 0 -7 -6 -21 -14 -31 -14 -19 -15 -19 -53 2
-40 23 -74 23 -99 2 -11 -9 -18 -8 -32 3 -9 9 -26 14 -37 12 -10 -1 -24 1 -30
6 -5 4 -28 12 -50 16 -51 10 -45 9 -78 22 -16 7 -32 10 -37 7 -4 -3 -13 1 -19
9 -8 10 -5 15 13 24 16 7 26 8 28 1 2 -7 13 -7 32 1 16 6 50 10 75 9 51 -1 82
4 108 21 13 7 -21 10 -131 8 -109 -2 -150 -6 -154 -15 -2 -7 -11 -13 -21 -13
-9 0 -22 -5 -29 -12 -6 -6 -24 -12 -39 -14 -15 -1 -44 -4 -63 -7 -19 -3 -57
-9 -84 -12 -45 -6 -172 -41 -220 -61 -16 -6 -18 -4 -11 12 4 10 12 38 18 61 6
25 18 45 31 51 14 7 -181 11 -631 11 l-653 1 0 -1609z m2679 1558 c-6 -3 -9
-10 -7 -15 1 -5 -7 -10 -19 -12 -29 -4 -29 5 -1 35 16 17 24 20 29 11 5 -7 3
-15 -2 -19z m-739 -449 c0 -5 -5 -10 -11 -10 -5 0 -7 5 -4 10 3 6 8 10 11 10
2 0 4 -4 4 -10z m971 -57 c0 -10 2 -38 3 -63 3 -30 1 -39 -4 -25 -8 19 -9 19
-9 -2 -1 -17 -8 -22 -33 -25 -28 -2 -34 -8 -36 -31 -2 -16 2 -35 9 -43 9 -12
6 -14 -20 -14 -28 0 -31 3 -31 30 0 17 5 30 10 30 6 0 10 9 10 20 0 11 -4 20
-10 20 -5 0 -7 -7 -4 -15 4 -8 4 -15 1 -15 -3 0 -8 7 -11 16 -4 10 13 35 51
75 59 62 73 70 74 42z m-11 -163 c0 -11 -4 -20 -9 -20 -13 0 -32 26 -24 33 13
14 33 6 33 -13z m229 -40 c0 -10 -3 -8 -9 5 -12 27 -12 43 0 25 5 -8 9 -22 9
-30z m-166 23 c-7 -2 -19 -2 -25 0 -7 3 -2 5 12 5 14 0 19 -2 13 -5z m-128
-91 c-8 -8 -25 17 -25 38 0 9 6 6 16 -8 9 -13 13 -26 9 -30z m186 -6 c5 3 9
-2 9 -12 0 -13 -3 -14 -15 -4 -8 7 -15 18 -14 24 0 7 2 6 6 -2 2 -6 9 -10 14
-6z m-111 -36 c0 -5 -7 -7 -15 -4 -8 4 -12 10 -9 15 6 11 24 2 24 -11z m-1950
6 c0 -2 -7 -7 -16 -10 -8 -3 -12 -2 -9 4 6 10 25 14 25 6z m1644 -2 c21 -8 21
-24 0 -24 -8 0 -13 4 -9 9 3 5 -3 12 -12 14 -10 3 -13 5 -6 6 6 0 18 -2 27 -5z
m374 -49 c-3 -3 -9 2 -12 12 -6 14 -5 15 5 6 7 -7 10 -15 7 -18z m-329 -36
c-13 -26 -23 -18 -14 10 3 12 11 19 16 16 5 -4 5 -14 -2 -26z m276 -10 c-3 -5
1 -6 9 -3 12 4 16 0 16 -16 0 -19 -2 -20 -15 -10 -8 7 -15 9 -15 4 0 -4 -5 -3
-11 3 -14 14 -4 47 11 38 6 -4 8 -11 5 -16z m-29 -31 c4 -7 3 -8 -4 -4 -18 11
-14 -10 5 -29 16 -16 15 -17 -3 -13 -12 2 -20 13 -22 31 -3 27 11 37 24 15z
m-36 -39 c0 -5 -4 -9 -8 -9 -5 0 -9 7 -9 15 0 8 4 12 9 9 4 -3 8 -9 8 -15z
m240 12 c0 -6 -4 -13 -10 -16 -5 -3 -10 1 -10 9 0 9 5 16 10 16 6 0 10 -4 10
-9z m44 -26 c-4 -8 -8 -15 -10 -15 -2 0 -4 7 -4 15 0 8 4 15 10 15 5 0 7 -7 4
-15z m-2273 -47 c-8 -18 -10 -19 -10 -5 -1 10 -6 15 -12 12 -6 -4 -8 -14 -4
-24 5 -12 3 -13 -6 -4 -8 8 -7 19 7 42 14 24 20 28 26 17 4 -8 4 -25 -1 -38z
m5 -153 c-3 -9 -10 -13 -16 -10 -6 4 -5 11 3 20 15 16 22 11 13 -10z m-389
-81 c-3 -3 -12 -4 -19 -1 -8 3 -5 6 6 6 11 1 17 -2 13 -5z m1043 -164 c0 -5
-3 -15 -6 -24 -5 -14 -9 -13 -32 2 -14 9 -23 11 -19 5 5 -7 4 -13 -2 -13 -11
0 -15 23 -6 32 9 9 65 7 65 -2z m577 -76 l32 -9 -30 -32 c-43 -49 -86 -46
-116 6 -12 21 -20 41 -18 43 7 7 96 1 132 -8z m13 -64 c0 -5 -5 -10 -11 -10
-5 0 -7 5 -4 10 3 6 8 10 11 10 2 0 4 -4 4 -10z m-1040 -140 c0 -22 -20 -26
-38 -8 -19 19 -14 28 13 28 18 0 25 -5 25 -20z m-420 -710 c-8 -5 -19 -10 -25
-10 -5 0 -3 5 5 10 8 5 20 10 25 10 6 0 3 -5 -5 -10z m-125 -40 c-14 -6 -15
-9 -5 -10 12 0 11 -3 -3 -11 -10 -6 -21 -8 -24 -5 -9 9 18 36 36 35 12 0 11
-2 -4 -9z m-69 -44 c-16 -14 -26 -29 -21 -35 4 -7 1 -18 -5 -26 -8 -9 -8 -15
-2 -15 5 0 8 -9 5 -20 -3 -11 0 -20 6 -20 16 0 14 -29 -4 -46 -8 -9 -15 -12
-15 -7 0 5 5 14 12 21 9 9 9 12 0 12 -7 0 -12 -5 -12 -12 0 -9 -3 -9 -12 0 -9
9 -9 15 0 24 7 7 12 19 12 27 0 31 -20 -6 -25 -45 -4 -28 -2 -35 5 -24 9 13
10 13 10 0 0 -8 -4 -21 -9 -29 -7 -11 -11 -9 -20 8 -7 12 -9 26 -6 31 3 5 1
11 -4 15 -14 8 8 65 26 65 8 0 13 8 11 19 -4 25 38 81 60 81 13 -1 10 -6 -12
-24z m154 -26 c0 -5 -2 -10 -4 -10 -3 0 -8 5 -11 10 -3 6 -1 10 4 10 6 0 11
-4 11 -10z m-5 -50 c-3 -5 -13 -10 -21 -10 -8 0 -12 5 -9 10 3 6 13 10 21 10
8 0 12 -4 9 -10z m-215 -142 c0 -5 -4 -8 -10 -8 -5 0 -10 7 -10 15 0 8 -5 15
-11 15 -5 0 -7 5 -4 11 7 10 34 -16 35 -33z m50 8 c0 -6 5 -4 10 4 5 8 10 10
10 4 0 -17 -52 -61 -57 -47 -3 8 -12 9 -27 4 -14 -6 -28 -4 -41 5 -10 8 -14
14 -9 14 6 0 16 -6 23 -12 12 -11 13 -10 7 6 -6 16 -4 17 10 5 14 -11 18 -11
30 6 8 10 14 22 14 27 0 4 7 5 15 2 8 -4 15 -11 15 -18z m-262 -211 c-9 -20
-9 -28 2 -38 10 -9 14 -9 17 2 4 8 8 9 12 3 3 -6 13 -12 21 -14 17 -4 71 -79
64 -90 -3 -5 -10 -5 -16 -2 -7 4 -8 2 -4 -4 4 -7 2 -12 -3 -12 -6 0 -11 -5
-11 -11 0 -6 13 0 28 13 16 13 25 25 20 26 -4 2 -8 11 -8 20 0 11 8 5 21 -15
12 -18 26 -33 32 -33 7 0 5 5 -3 10 -8 5 -12 10 -7 10 4 0 0 12 -10 27 -14 21
-14 25 -3 21 8 -3 14 -9 13 -14 0 -5 6 -15 14 -23 13 -12 14 -11 8 10 -7 21
-6 22 9 10 12 -10 16 -10 16 -1 0 10 3 10 15 0 14 -12 15 -23 1 -21 -4 1 -13
-4 -20 -11 -11 -11 -11 -16 0 -33 16 -22 18 -39 5 -31 -5 3 -8 -5 -7 -19 1
-27 22 -41 40 -26 9 7 15 2 23 -18 9 -25 8 -28 -7 -24 -10 3 -21 0 -24 -6 -4
-6 -12 -11 -19 -11 -8 0 -8 3 0 11 18 18 4 40 -21 34 -17 -5 -18 -4 -6 5 13
10 13 11 -2 7 -9 -4 -19 1 -22 10 -9 21 3 31 14 13 8 -13 10 -13 10 1 0 23
-11 30 -27 18 -17 -15 -17 -2 1 16 10 11 16 11 26 2 10 -9 11 -9 8 3 -3 8 -12
15 -20 15 -8 0 -22 6 -30 13 -21 17 -47 -11 -29 -31 6 -8 8 -17 4 -20 -3 -4
-12 1 -19 11 -12 15 -12 15 -7 -6 4 -16 11 -21 23 -17 12 4 25 -4 39 -24 23
-32 26 -41 11 -41 -5 0 -17 14 -25 31 -23 43 -30 30 -9 -15 20 -40 26 -43 44
-21 7 8 17 15 22 15 6 0 6 -6 -1 -14 -9 -11 -8 -17 3 -29 13 -13 13 -17 1 -27
-7 -6 -12 -17 -9 -24 9 -24 -23 -25 -42 -2 -25 29 -28 47 -12 57 10 7 10 9 1
9 -7 0 -13 7 -13 15 0 8 -4 15 -8 15 -5 0 -15 18 -22 40 l-13 40 -21 -19 c-21
-20 -22 -20 -34 -1 -7 11 -19 20 -27 20 -8 0 -15 5 -15 11 0 5 6 7 13 3 9 -6
9 -5 0 7 -8 10 -9 19 -1 29 8 12 9 12 4 -3 -3 -10 -2 -16 3 -13 5 3 14 -8 20
-25 9 -26 13 -29 31 -19 11 6 20 16 20 22 0 7 -5 6 -15 -2 -12 -10 -18 -6 -36
25 -15 26 -25 33 -32 26 -16 -16 -23 -13 -24 9 -1 16 3 20 16 15 15 -4 18 0
17 25 -1 17 -6 30 -14 30 -7 0 -11 -4 -8 -8 3 -5 -3 -14 -13 -21 -11 -8 -16
-21 -14 -32 4 -14 1 -16 -16 -12 -22 5 -29 23 -10 23 5 0 7 5 4 10 -3 6 1 10
9 10 8 0 18 9 21 20 3 11 10 20 15 20 4 0 6 9 3 20 -3 11 0 27 7 35 18 22 21
18 8 -10z m-28 -150 c5 -3 10 -10 10 -16 0 -5 -17 0 -37 11 -35 19 -38 19 -45
3 -5 -15 -7 -15 -7 -2 -1 9 2 18 5 21 6 6 55 -5 74 -17z m-17 -27 l25 -23 -32
0 c-17 0 -37 4 -45 9 -11 7 -13 5 -8 -9 6 -14 3 -16 -13 -12 -11 3 -20 1 -20
-4 0 -13 -27 -11 -35 2 -4 6 0 9 11 7 11 -2 18 2 17 9 -2 8 4 10 14 6 12 -5
15 -2 10 9 -4 12 -1 14 14 11 10 -3 19 0 19 6 0 17 17 13 43 -11z m196 3 c9
-6 10 -11 2 -15 -13 -8 -31 1 -31 15 0 11 11 11 29 0z m-72 -70 c-12 -4 -14
-10 -7 -21 14 -22 12 -30 -5 -24 -8 4 -13 10 -10 14 3 5 0 12 -5 15 -7 5 -5
12 7 20 10 7 22 11 27 7 5 -3 2 -8 -7 -11z m-57 -36 c0 -12 -29 -3 -34 10 -4
13 -2 14 14 5 11 -6 20 -13 20 -15z m78 0 c-3 -3 -9 2 -12 12 -6 14 -5 15 5 6
7 -7 10 -15 7 -18z m-244 -6 c-3 -6 0 -15 7 -20 7 -4 10 -11 6 -15 -4 -4 -14
1 -21 12 -11 14 -11 21 -3 26 17 11 19 10 11 -3z m66 -21 c0 -13 -9 -10 -33
13 l-22 21 28 -13 c15 -7 27 -16 27 -21z m180 2 c0 -5 -5 -10 -11 -10 -5 0 -7
5 -4 10 3 6 8 10 11 10 2 0 4 -4 4 -10z m-187 -43 c-3 -5 -8 -5 -12 -1 -3 5
-12 10 -20 12 -9 2 -11 -3 -7 -15 6 -14 5 -15 -5 -6 -20 20 7 46 31 31 10 -7
16 -16 13 -21z m63 12 c19 -11 34 -16 34 -10 0 6 -4 11 -10 11 -5 0 -10 5 -10
10 0 7 6 7 20 0 10 -6 17 -16 14 -24 -3 -7 3 -19 12 -27 16 -12 17 -12 11 4
-9 24 10 22 23 -3 9 -16 8 -18 -5 -14 -9 4 -15 1 -15 -7 0 -10 -3 -10 -12 -1
-8 8 -15 9 -25 0 -10 -8 -12 -8 -8 3 3 8 -4 20 -15 27 -17 10 -20 10 -20 -3 0
-11 -6 -12 -22 -6 -13 5 -23 13 -22 20 4 50 3 49 50 20z"/>
<path d="M205 350 c-4 -12 3 -40 18 -72 23 -48 25 -50 36 -30 15 28 14 37 -3
23 -12 -10 -16 -6 -25 22 -7 19 -9 41 -6 49 4 9 2 19 -4 22 -5 4 -12 -3 -16
-14z"/>
<path d="M243 333 c-7 -3 -13 -9 -13 -15 0 -6 7 -8 15 -4 8 3 15 1 15 -4 0 -6
-4 -10 -10 -10 -5 0 -10 -4 -10 -10 0 -5 7 -7 15 -4 15 6 21 40 8 47 -5 2 -14
2 -20 0z"/>
<path d="M344 94 c-18 -15 -18 -15 0 -9 11 3 23 1 26 -6 4 -6 10 -7 13 -3 3 5
-1 14 -8 21 -10 9 -17 8 -31 -3z"/>
<path d="M356 57 c3 -10 9 -15 12 -12 3 3 0 11 -7 18 -10 9 -11 8 -5 -6z"/>
<path d="M100 230 c0 -5 7 -10 16 -10 8 0 12 5 9 10 -3 6 -10 10 -16 10 -5 0
-9 -4 -9 -10z"/>
<path d="M2797 2969 c7 -7 15 -10 18 -7 3 3 -2 9 -12 12 -14 6 -15 5 -6 -5z"/>
<path d="M1576 2955 c-3 -8 -1 -15 4 -15 6 0 10 7 10 15 0 8 -2 15 -4 15 -2 0
-6 -7 -10 -15z"/>
<path d="M2697 2879 c7 -7 15 -10 18 -7 3 3 -2 9 -12 12 -14 6 -15 5 -6 -5z"/>
<path d="M1925 2830 c3 -5 8 -10 11 -10 2 0 4 5 4 10 0 6 -5 10 -11 10 -5 0
-7 -4 -4 -10z"/>
<path d="M3198 2133 c7 -3 16 -2 19 1 4 3 -2 6 -13 5 -11 0 -14 -3 -6 -6z"/>
<path d="M2698 2103 c7 -3 16 -2 19 1 4 3 -2 6 -13 5 -11 0 -14 -3 -6 -6z"/>
<path d="M494 1855 c-8 -32 1 -42 21 -25 8 7 24 10 36 7 21 -6 21 -5 -2 19
-29 31 -47 31 -55 -1z"/>
<path d="M752 1500 c0 -14 2 -19 5 -12 2 6 2 18 0 25 -3 6 -5 1 -5 -13z"/>
<path d="M802 1370 c0 -14 2 -19 5 -12 2 6 2 18 0 25 -3 6 -5 1 -5 -13z"/>
<path d="M820 1288 c0 -16 5 -28 10 -28 13 0 13 20 0 40 -8 12 -10 9 -10 -12z"/>
<path d="M775 1279 c-10 -30 -2 -32 12 -3 6 13 7 24 3 24 -5 0 -12 -9 -15 -21z"/>
<path d="M3275 1080 c-3 -5 1 -10 10 -10 9 0 13 5 10 10 -3 6 -8 10 -10 10 -2
0 -7 -4 -10 -10z"/>
<path d="M933 1032 c11 -17 -3 -41 -20 -35 -10 4 -14 2 -10 -4 4 -6 16 -13 27
-16 17 -4 20 0 20 23 0 16 -5 32 -12 36 -6 4 -8 3 -5 -4z"/>
<path d="M1737 1021 c12 -10 43 -21 69 -25 51 -7 127 -46 142 -73 6 -9 28 -19
53 -22 42 -6 44 -8 56 -51 6 -25 12 -36 13 -25 1 20 1 19 19 -1 17 -22 18 -22
30 -2 7 11 19 17 26 14 8 -3 17 -1 20 4 4 6 -6 15 -20 20 -28 11 -45 6 -45
-11 0 -6 4 -7 10 -4 6 4 7 -1 3 -11 -5 -14 -9 -12 -20 11 -11 20 -12 30 -4 38
6 6 11 7 11 1 0 -5 14 -10 32 -10 l31 -1 -26 14 c-31 16 -29 19 37 83 39 38
41 60 5 60 -11 0 -24 -11 -31 -25 -6 -14 -17 -25 -25 -25 -7 0 -13 -3 -13 -8
0 -4 -16 -16 -35 -26 -24 -13 -38 -16 -47 -9 -7 6 -22 7 -33 3 -14 -5 -27 0
-45 18 -38 36 -99 62 -152 62 -26 0 -50 5 -53 10 -3 6 -12 10 -18 10 -7 -1 -2
-9 10 -19z"/>
<path d="M2515 1009 c-11 -16 -1 -19 13 -3 7 8 8 14 3 14 -5 0 -13 -5 -16 -11z"/>
<path d="M2838 1003 c7 -3 16 -2 19 1 4 3 -2 6 -13 5 -11 0 -14 -3 -6 -6z"/>
<path d="M995 990 c3 -5 8 -10 11 -10 2 0 4 5 4 10 0 6 -5 10 -11 10 -5 0 -7
-4 -4 -10z"/>
<path d="M3045 991 c-7 -12 12 -24 25 -16 6 3 10 1 10 -4 0 -16 19 -13 37 4
10 11 25 14 49 9 22 -4 34 -2 34 5 0 14 -146 15 -155 2z"/>
<path d="M3255 981 c-3 -7 2 -11 14 -11 12 0 21 -4 21 -10 0 -5 8 -10 18 -10
14 0 15 2 2 10 -11 7 -2 9 33 8 26 -1 50 2 54 5 3 4 -19 7 -50 7 -30 0 -62 3
-70 6 -8 3 -18 1 -22 -5z"/>
<path d="M958 900 c2 -22 5 -40 7 -40 2 0 5 18 7 40 2 24 -1 40 -7 40 -6 0 -9
-16 -7 -40z"/>
<path d="M780 921 c0 -6 5 -13 11 -17 6 -3 9 -19 5 -34 -3 -15 -2 -31 2 -35 4
-4 7 -10 8 -13 1 -17 28 -62 36 -62 5 0 8 -6 7 -12 -3 -27 1 -61 8 -55 3 4 11
-3 18 -16 6 -12 18 -21 27 -21 8 1 15 -4 14 -11 -1 -14 123 -155 136 -155 10
0 123 -89 185 -146 23 -22 54 -49 70 -61 15 -12 41 -33 57 -46 16 -14 79 -50
141 -81 88 -44 129 -58 190 -67 42 -5 86 -14 98 -18 19 -7 19 -8 -8 -15 -27
-7 -54 -31 -55 -48 0 -5 21 -8 47 -8 42 0 45 1 28 14 -18 13 -17 14 8 31 15 9
43 21 63 25 31 7 35 6 29 -8 -4 -10 -9 -25 -12 -34 -3 -9 -12 -19 -22 -21 -9
-3 10 -5 42 -6 39 -1 56 3 52 10 -4 6 -13 8 -21 5 -22 -8 -29 16 -8 27 18 11
26 13 60 20 9 2 22 11 29 20 7 9 15 14 18 11 3 -3 13 8 22 25 8 17 19 31 23
31 4 0 13 9 20 21 11 18 11 24 -4 40 -9 11 -12 19 -6 19 12 0 82 103 82 120 0
5 13 29 30 53 16 25 30 50 30 55 0 6 8 17 18 24 9 7 22 22 29 33 6 11 16 19
22 18 6 -2 11 6 11 17 0 10 8 27 18 37 11 10 25 33 33 51 8 17 17 32 21 32 4
0 11 18 14 40 4 22 10 40 14 40 10 0 44 129 36 138 -9 9 -25 -16 -33 -50 -3
-16 -9 -28 -14 -28 -4 0 -11 -10 -15 -22 -3 -12 -13 -28 -20 -36 -8 -7 -14
-22 -14 -33 0 -10 -4 -19 -10 -19 -5 0 -10 -9 -10 -20 0 -11 -4 -20 -10 -20
-5 0 -10 -6 -10 -14 0 -7 -9 -16 -20 -19 -11 -3 -20 -1 -20 5 0 5 -5 6 -10 3
-6 -4 -8 -10 -5 -15 3 -4 -2 -13 -10 -20 -8 -7 -15 -19 -15 -27 0 -8 -4 -11
-10 -8 -6 3 -10 1 -10 -5 0 -6 -7 -18 -15 -27 -9 -8 -19 -28 -22 -44 -4 -20
-11 -28 -22 -27 -11 2 -15 -3 -13 -16 3 -17 2 -18 -12 -6 -15 12 -16 10 -6
-16 9 -24 8 -31 -6 -41 -20 -15 -27 -40 -13 -49 13 -7 11 -34 -2 -34 -5 0 -8
4 -5 8 3 5 -6 21 -20 38 -14 16 -20 20 -13 7 10 -17 10 -26 1 -45 -12 -23 -12
-23 -6 -1 4 17 2 22 -10 17 -20 -8 -28 -32 -16 -54 14 -25 13 -37 -2 -22 -9 9
-14 6 -23 -11 -6 -12 -19 -21 -28 -19 -11 2 -17 -4 -17 -16 0 -16 -6 -19 -35
-16 -26 2 -35 -2 -35 -13 0 -12 -7 -14 -34 -9 -24 5 -39 2 -50 -9 -15 -15 -16
-15 -16 2 0 13 -3 14 -8 5 -6 -9 -12 -5 -21 14 -9 21 -14 24 -26 14 -12 -10
-18 -10 -30 0 -12 10 -16 9 -21 -4 -3 -9 -10 -16 -16 -16 -5 0 -6 4 -3 10 3 5
1 18 -4 27 -7 12 -10 14 -11 4 0 -11 -3 -11 -15 -1 -13 11 -14 10 -9 -4 8 -20
0 -21 -20 0 -17 17 -22 39 -7 29 5 -3 13 0 17 7 4 7 4 10 -1 6 -4 -4 -14 -3
-21 3 -11 9 -15 7 -20 -5 -6 -15 -8 -15 -24 -1 -10 9 -21 15 -26 14 -23 -4
-45 2 -39 11 3 5 1 10 -4 10 -6 0 -11 -3 -11 -8 0 -4 -10 -13 -22 -21 -18 -10
-20 -11 -10 0 6 7 12 19 12 27 0 10 -4 9 -17 -4 -13 -13 -18 -14 -22 -3 -2 7
-13 20 -24 29 -11 9 -19 28 -19 41 0 17 -10 32 -29 45 -16 10 -29 22 -29 27 0
4 -7 7 -16 7 -10 0 -14 -6 -10 -15 9 -25 -2 -17 -19 13 -13 22 -15 23 -10 4 8
-29 -18 -40 -41 -18 -15 16 -15 18 2 38 18 20 18 21 1 15 -10 -4 -21 -7 -23
-7 -3 0 -3 -4 0 -9 3 -5 -1 -12 -10 -15 -11 -4 -15 -2 -11 8 4 9 -3 16 -19 20
-15 4 -24 14 -24 26 0 11 -4 20 -9 20 -6 0 -4 12 4 27 16 30 13 39 -7 27 -7
-5 -23 -9 -34 -9 -25 -1 -22 19 8 48 10 10 18 19 18 21 0 1 -17 1 -37 0 -21
-1 -32 0 -25 3 6 2 11 19 11 36 -1 24 -3 26 -6 10 -2 -13 -9 -23 -14 -23 -6 0
-7 9 -4 20 8 26 -22 61 -35 39 -7 -11 -10 -10 -16 4 -4 10 -2 23 5 30 14 14
14 37 0 37 -5 0 -8 -4 -4 -9 3 -5 1 -12 -4 -15 -13 -8 -24 29 -16 54 8 25 -20
28 -29 3 -11 -27 -26 3 -26 50 0 41 -13 48 -30 17 -15 -28 -28 -25 -22 5 6 33
-6 32 -19 -2 l-11 -28 -13 25 c-8 14 -14 33 -15 43 0 17 -30 25 -30 8z m109
-113 c1 28 21 29 21 1 0 -11 4 -29 10 -39 6 -12 6 -27 1 -42 l-10 -23 0 25
c-1 15 -15 37 -38 57 -25 23 -32 33 -20 33 9 0 18 6 18 13 1 6 5 -1 9 -18 6
-24 8 -26 9 -7z m374 -448 c-3 -12 -8 -19 -11 -16 -5 6 5 36 12 36 2 0 2 -9
-1 -20z m296 -141 c3 -24 3 -24 -18 -5 -11 10 -18 23 -15 28 10 16 29 2 33
-23z m42 -26 c13 -17 13 -17 -6 -3 -11 8 -22 16 -24 17 -2 2 0 3 6 3 6 0 17
-8 24 -17z"/>
<path d="M2316 774 c-11 -28 -7 -44 10 -37 10 4 12 8 4 13 -6 3 -8 14 -4 23 3
9 4 17 1 17 -3 0 -8 -7 -11 -16z"/>
<path d="M2089 712 c-11 -7 -19 -10 -19 -6 0 3 -6 1 -13 -5 -8 -6 -31 -11 -53
-10 -21 0 -52 -1 -69 -2 -16 -1 -45 1 -62 5 -21 5 -33 4 -33 -3 0 -22 123 -25
275 -7 17 2 37 4 46 5 8 0 24 7 34 15 17 12 14 14 -34 17 -34 3 -61 -1 -72 -9z"/>
<path d="M1667 710 c-43 -4 -80 -9 -82 -11 -2 -2 48 -4 110 -4 63 0 111 3 107
6 -14 13 -59 16 -135 9z"/>
<path d="M1202 698 c-15 -15 -16 -38 -2 -38 12 0 23 25 18 40 -2 7 -7 7 -16
-2z"/>
<path d="M2520 640 c0 -5 10 -10 23 -10 18 0 19 2 7 10 -19 13 -30 13 -30 0z"/>
<path d="M497 633 c-4 -3 -7 -11 -7 -17 0 -6 5 -5 12 2 6 6 9 14 7 17 -3 3 -9
2 -12 -2z"/>
<path d="M2608 633 c7 -3 16 -2 19 1 4 3 -2 6 -13 5 -11 0 -14 -3 -6 -6z"/>
<path d="M525 601 c4 -13 2 -28 -6 -37 -10 -12 -9 -13 6 -8 13 5 16 4 11 -4
-4 -7 -3 -12 3 -12 15 0 9 55 -8 70 -11 11 -12 9 -6 -9z"/>
<path d="M1100 569 c0 -5 5 -7 10 -4 6 3 10 8 10 11 0 2 -4 4 -10 4 -5 0 -10
-5 -10 -11z"/>
<path d="M478 548 c8 -10 9 -19 3 -22 -5 -3 -11 -1 -13 6 -3 7 -7 8 -10 3 -3
-6 0 -15 6 -21 10 -9 15 -7 24 6 9 15 8 21 -6 32 -15 12 -16 11 -4 -4z"/>
<path d="M1875 540 l-30 -6 30 -5 c39 -5 75 0 75 12 0 9 -23 9 -75 -1z"/>
<path d="M336 515 c-9 -26 -7 -32 5 -12 6 10 9 21 6 23 -2 3 -7 -2 -11 -11z"/>
<path d="M625 510 c-3 -5 -2 -10 4 -10 5 0 13 5 16 10 3 6 2 10 -4 10 -5 0
-13 -4 -16 -10z"/>
<path d="M405 489 c-6 -17 -9 -19 -17 -8 -7 10 -8 8 -3 -8 7 -25 -10 -40 -19
-16 -5 11 -10 13 -17 6 -7 -7 -5 -22 5 -48 9 -21 19 -35 23 -31 4 3 1 12 -5
18 -18 18 -14 34 8 35 13 1 18 -2 13 -10 -4 -7 0 -6 10 2 9 7 17 19 17 25 0 6
-5 4 -10 -4 -14 -21 -13 5 1 32 6 11 8 22 6 25 -3 2 -8 -5 -12 -18z"/>
<path d="M1150 499 c0 -5 5 -7 10 -4 6 3 10 8 10 11 0 2 -4 4 -10 4 -5 0 -10
-5 -10 -11z"/>
<path d="M227 488 c-7 -20 -8 -28 -1 -27 4 0 16 -16 28 -36 12 -19 25 -33 29
-29 3 4 13 1 22 -6 10 -8 15 -9 15 -1 0 6 -5 11 -11 11 -5 0 -8 4 -4 9 3 5 1
12 -5 16 -5 3 -10 1 -10 -4 0 -20 -17 -11 -28 13 -13 30 -4 42 15 18 13 -16
13 -15 4 3 -6 11 -15 27 -22 35 -9 13 -10 12 -5 -2 3 -12 0 -18 -9 -18 -9 0
-12 6 -9 15 4 8 4 15 1 15 -3 0 -7 -6 -10 -12z"/>
<path d="M487 493 c-4 -3 -7 -11 -7 -17 0 -6 5 -5 12 2 6 6 9 14 7 17 -3 3 -9
2 -12 -2z"/>
<path d="M505 469 c-9 -17 -15 -33 -13 -35 3 -2 12 12 21 31 21 43 13 47 -8 4z"/>
<path d="M432 440 c-7 -11 -12 -27 -12 -36 0 -13 -3 -14 -15 -4 -22 18 -18 -1
6 -30 l20 -25 -6 25 -6 25 15 -25 c13 -21 15 -22 16 -6 0 11 7 27 15 36 13 14
12 16 -4 16 -11 0 -17 -6 -14 -13 3 -7 0 -13 -6 -13 -15 0 -14 33 1 48 6 6 10
14 7 16 -3 3 -10 -4 -17 -14z"/>
<path d="M467 453 c-4 -3 -7 -11 -7 -17 0 -6 5 -5 12 2 6 6 9 14 7 17 -3 3 -9
2 -12 -2z"/>
<path d="M315 435 c4 -11 10 -28 12 -37 3 -10 9 -15 14 -12 14 8 11 19 -13 45
-18 20 -20 21 -13 4z"/>
<path d="M1286 442 c-3 -5 1 -9 9 -9 8 0 12 4 9 9 -3 4 -7 8 -9 8 -2 0 -6 -4
-9 -8z"/>
<path d="M530 419 c-7 -11 -9 -27 -6 -36 4 -10 2 -13 -8 -10 -10 4 -13 1 -9
-9 3 -7 0 -14 -6 -14 -11 0 -15 13 -12 39 2 11 0 11 -12 0 -12 -11 -11 -16 4
-33 18 -18 20 -18 37 -3 10 10 22 14 27 10 4 -5 2 2 -4 15 -8 16 -9 28 -1 42
6 11 8 20 6 20 -3 0 -10 -9 -16 -21z"/>
<path d="M575 409 c-4 -6 -5 -12 -2 -15 2 -3 7 2 10 11 7 17 1 20 -8 4z"/>
<path d="M551 399 c-1 -9 7 -23 17 -30 15 -12 16 -12 6 1 -6 8 -14 22 -17 30
-5 13 -6 12 -6 -1z"/>
<path d="M606 397 c3 -10 9 -15 12 -12 3 3 0 11 -7 18 -10 9 -11 8 -5 -6z"/>
<path d="M776 371 c-4 -5 2 -7 13 -4 10 3 22 0 25 -6 4 -6 12 -11 18 -11 7 0
6 6 -2 15 -14 17 -46 20 -54 6z"/>
<path d="M785 350 c-3 -5 -1 -10 4 -10 6 0 11 5 11 10 0 6 -2 10 -4 10 -3 0
-8 -4 -11 -10z"/>
<path d="M510 330 c-12 -7 -10 -9 7 -7 12 0 19 5 17 9 -6 10 -6 10 -24 -2z"/>
<path d="M600 330 c-8 -5 -12 -12 -9 -15 4 -3 12 1 19 10 14 17 11 19 -10 5z"/>
<path d="M830 310 c-8 -5 -12 -11 -9 -14 2 -3 11 -1 19 4 8 5 12 11 9 14 -2 3
-11 1 -19 -4z"/>
<path d="M560 280 c6 -11 15 -20 20 -20 6 0 2 9 -7 20 -10 11 -19 20 -21 20
-1 0 2 -9 8 -20z"/>
<path d="M687 289 c7 -7 15 -10 18 -7 3 3 -2 9 -12 12 -14 6 -15 5 -6 -5z"/>
<path d="M849 283 c-13 -17 -13 -17 6 -3 11 8 22 16 24 17 2 2 0 3 -6 3 -6 0
-17 -8 -24 -17z"/>
<path d="M536 275 c4 -10 0 -15 -11 -15 -10 0 -14 5 -9 13 5 9 4 9 -6 0 -18
-17 -3 -35 19 -23 12 6 22 5 31 -3 7 -7 5 0 -5 16 -19 30 -28 35 -19 12z"/>
<path d="M430 260 c-9 -6 -10 -10 -3 -10 6 0 15 5 18 10 8 12 4 12 -15 0z"/>
<path d="M599 203 c6 -13 14 -23 16 -23 2 0 10 10 16 23 11 19 10 20 -3 10
-11 -10 -17 -10 -27 0 -11 10 -11 8 -2 -10z"/>
<path d="M829 183 c-13 -16 -12 -17 4 -4 16 13 21 21 13 21 -2 0 -10 -8 -17
-17z"/>
<path d="M660 170 c-8 -5 -10 -10 -5 -10 6 0 17 5 25 10 8 5 11 10 5 10 -5 0
-17 -5 -25 -10z"/>
<path d="M950 170 c-9 -6 -10 -10 -3 -10 6 0 15 5 18 10 8 12 4 12 -15 0z"/>
<path d="M527 150 c-19 -16 -20 -21 -9 -37 7 -10 15 -26 18 -35 7 -21 13 -22
37 -4 15 12 16 15 2 26 -9 7 -18 10 -22 6 -3 -3 -1 -6 5 -6 7 0 12 -4 12 -10
0 -20 -20 -9 -35 20 -9 17 -11 30 -5 30 5 0 10 -5 10 -11 0 -5 5 -7 11 -3 8 5
8 9 -1 14 -16 10 3 22 23 14 8 -3 17 -2 20 3 10 16 -44 10 -66 -7z"/>
<path d="M600 146 c0 -4 6 -13 13 -20 11 -11 17 -11 33 2 18 14 18 14 0 8 -10
-3 -25 -1 -32 5 -8 6 -14 8 -14 5z"/>
<path d="M710 140 c-18 -12 -2 -12 25 0 13 6 15 9 5 9 -8 0 -22 -4 -30 -9z"/>
<path d="M756 131 c-4 -5 3 -7 14 -4 23 6 26 13 6 13 -8 0 -17 -4 -20 -9z"/>
<path d="M597 100 c9 -17 21 -30 26 -30 5 0 -1 14 -13 30 -12 17 -24 30 -26
30 -3 0 3 -13 13 -30z"/>
<path d="M495 90 c7 -23 7 -24 -10 -10 -16 13 -18 13 -13 0 3 -8 14 -14 24
-13 10 1 22 -4 26 -10 5 -8 8 -8 8 -1 0 6 -10 22 -21 35 l-21 24 7 -25z"/>
<path d="M435 90 c4 -6 1 -18 -7 -27 -12 -15 -11 -15 9 -3 20 13 21 40 1 40
-5 0 -6 -5 -3 -10z"/>
<path d="M650 73 c0 -6 8 -17 18 -24 16 -13 16 -13 2 6 -8 11 -16 22 -17 24
-2 2 -3 0 -3 -6z"/>
<path d="M560 52 c-14 -11 -19 -23 -15 -35 9 -21 19 -22 34 -3 10 12 8 13 -8
9 -12 -3 -21 -1 -21 6 0 6 5 11 11 11 6 0 17 7 25 15 21 21 1 19 -26 -3z"/>
<path d="M690 59 c0 -5 5 -7 10 -4 6 3 10 8 10 11 0 2 -4 4 -10 4 -5 0 -10 -5
-10 -11z"/>
<path d="M453 53 c4 -3 -5 -15 -20 -25 -16 -10 -23 -18 -17 -18 5 0 19 6 29
14 17 12 21 12 32 -4 15 -21 53 -23 53 -3 0 17 -17 17 -23 1 -2 -7 -8 -10 -12
-6 -4 4 -2 15 6 24 12 15 11 16 -9 10 -13 -5 -22 -3 -22 3 0 6 -5 11 -12 11
-6 0 -8 -3 -5 -7z"/>
<path d="M610 50 c-8 -5 -12 -11 -10 -14 3 -2 14 2 24 10 22 15 10 19 -14 4z"/>
<path d="M2054 25 c-12 -8 -24 -11 -28 -8 -3 3 -6 1 -6 -5 0 -8 19 -11 53 -10
46 1 49 2 24 10 -15 6 -25 14 -21 19 7 13 2 11 -22 -6z"/>
<path d="M615 10 c3 -5 8 -10 11 -10 2 0 4 5 4 10 0 6 -5 10 -11 10 -5 0 -7
-4 -4 -10z"/>
<path d="M1988 3 c7 -3 16 -2 19 1 4 3 -2 6 -13 5 -11 0 -14 -3 -6 -6z"/>
</g>
</svg>
